# xmcd
#
# Track frame offsets:
#	182
#	18070
#	37367
#	53652
#	67720
#	80937
#	97595
#	107885
#	124337
#	141320
#	162995
#	180280
#	196397
#	211520
#	223565
#	245735
#
# Disc length: 3423 seconds
#
# Revision: 1
# Processed by: cddbd v1.5.1PL0 Copyright (c) Steve Scherf et al.
# Submitted via: audiograbber 1.83.01
#
DISCID=db0d5d10
DTITLE=Memphis Slim - Blues In The Evening
DYEAR=1900
DGENRE=Blues
TTITLE0=In The Evening
TTITLE1=Red Haired Boogie
TTITLE2=Blue and Disgusted
TTITLE3=Harlem Bound
TTITLE4=El Capitan
TTITLE5=Just Landed In Your Town
TTITLE6=John Henry
TTITLE7=Baby Gone
TTITLE8=Cow Cow Blues
TTITLE9=Miss Ida B.
TTITLE10=Forty-Four Blues
TTITLE11=Trouble In My Mind
TTITLE12=Worried Life Blues
TTITLE13=Don't Want My Rooster Crowin' After The Sun Goes Down
TTITLE14=Lonesome In My Bedroom
TTITLE15=Diggin' My Potatoes
EXTD=Baur Music Production
EXTT0=
EXTT1=
EXTT2=
EXTT3=
EXTT4=
EXTT5=
EXTT6=
EXTT7=
EXTT8=
EXTT9=
EXTT10=
EXTT11=
EXTT12=
EXTT13=
EXTT14=
EXTT15=
PLAYORDER=
